<svg xmlns="http://www.w3.org/2000/svg" xmlns:xlink="http://www.w3.org/1999/xlink" width="500" zoomAndPan="magnify" viewBox="0 0 375 222.749995" height="297" preserveAspectRatio="xMidYMid meet" version="1.0"><defs><g/></defs><path fill="#007a3f" d="M 3.238281 119.277344 C 3.238281 119.277344 61.042969 73.171875 71.285156 76.796875 C 81.527344 80.425781 108.335938 38.097656 116.773438 45.050781 C 125.207031 52.007812 127.015625 65.003906 135.75 59.261719 C 144.488281 53.515625 193.589844 0 203.230469 10.886719 C 212.867188 21.769531 235.164062 52.007812 246.609375 49.890625 C 258.054688 47.773438 262.574219 64.308594 270.707031 64.355469 C 278.839844 64.402344 287.578125 41.726562 296.011719 47.167969 C 304.445312 52.609375 315.59375 63.496094 324.628906 71.359375 C 333.667969 79.21875 374.9375 120.640625 368.914062 119.277344 C 362.886719 117.917969 353.25 100.988281 340.597656 100.6875 C 327.945312 100.382812 324.628906 95.546875 332.460938 103.707031 C 340.292969 111.871094 350.535156 123.058594 336.074219 110.96875 C 321.617188 98.871094 319.808594 101.894531 308.363281 91.3125 C 296.914062 80.730469 298.421875 74.984375 285.46875 73.171875 C 272.511719 71.359375 267.847656 68.785156 274.472656 76.042969 C 281.101562 83.300781 285.316406 89.496094 285.316406 89.496094 C 285.316406 89.496094 292.546875 100.382812 282.304688 89.496094 C 272.0625 78.613281 268.449219 74.683594 264.382812 73.171875 C 260.3125 71.65625 257.453125 63.949219 257.304688 62.890625 C 257.152344 61.832031 256.246094 53.21875 249.46875 53.21875 C 242.691406 53.21875 240.582031 53.367188 240.582031 55.9375 C 240.582031 58.507812 233.804688 55.480469 231.699219 53.671875 C 229.589844 51.855469 200.667969 12.550781 198.109375 17.234375 C 195.546875 21.921875 197.054688 22.074219 197.054688 26.003906 C 197.054688 29.933594 205.488281 34.773438 208.953125 41.726562 C 212.417969 48.679688 208.5 42.027344 212.867188 50.644531 C 217.238281 59.261719 221.453125 62.4375 210.910156 55.027344 C 200.367188 47.625 197.207031 35.832031 192.535156 37.796875 C 187.867188 39.761719 191.78125 39.003906 189.371094 45.503906 C 186.964844 52.007812 191.628906 45.503906 191.480469 54.878906 C 191.332031 64.253906 205.1875 61.910156 212.417969 73.246094 C 219.644531 84.582031 221.679688 85.492188 227.78125 89.121094 C 233.878906 92.75 241.5625 98.871094 234.785156 95.46875 C 228.007812 92.070312 215.355469 90.933594 209.027344 85.71875 C 202.703125 80.503906 200.214844 82.542969 199.539062 87.757812 C 198.863281 92.972656 209.253906 91.164062 208.351562 96.148438 C 207.449219 101.140625 212.191406 99.550781 223.261719 112.703125 C 234.332031 125.855469 236.59375 124.269531 225.972656 119.277344 C 215.355469 114.292969 213.546875 106.808594 202.703125 104.085938 C 191.855469 101.367188 191.179688 98.871094 179.429688 95.695312 C 167.683594 92.523438 175.363281 110.664062 165.875 101.367188 C 156.386719 92.070312 144.410156 79.144531 137.859375 75.515625 C 131.308594 71.886719 131.535156 74.605469 125.660156 69.164062 C 119.785156 63.722656 115.71875 60.246094 118.203125 66.179688 C 120.6875 72.113281 125.882812 77.328125 128.824219 83.902344 C 131.757812 90.480469 128.144531 88.554688 130.289062 91.726562 C 132.4375 94.902344 133.453125 95.582031 134.355469 98.417969 C 135.261719 101.253906 135.148438 101.480469 131.871094 98.191406 C 128.597656 94.902344 127.242188 94.789062 126.902344 92.523438 C 126.5625 90.253906 126.5625 92.972656 121.140625 89.347656 C 115.71875 85.71875 113.230469 83.5625 107.359375 82.09375 C 101.484375 80.617188 102.953125 77.214844 99.5625 79.824219 C 96.175781 82.433594 96.0625 79.371094 94.933594 83.222656 C 93.804688 87.078125 99.335938 85.605469 102.277344 89.800781 C 105.210938 93.996094 101.03125 91.84375 109.957031 98.417969 C 118.882812 104.992188 114.25 103.179688 118.996094 107.375 C 123.738281 111.570312 127.46875 111.570312 130.289062 116.332031 C 133.117188 121.09375 136.84375 127.441406 131.308594 121.546875 C 125.773438 115.648438 125.09375 114.972656 119.445312 114.519531 C 113.796875 114.066406 112.894531 117.804688 108.601562 113.613281 C 104.308594 109.414062 91.542969 110.210938 86.121094 104.199219 C 80.699219 98.191406 76.292969 89.914062 67.480469 93.542969 C 58.671875 97.167969 52.683594 89.6875 48.957031 94.5625 C 45.226562 99.4375 48.503906 95.015625 53.585938 100.914062 C 58.671875 106.808594 60.476562 105.671875 61.605469 108.054688 C 62.738281 110.4375 62.738281 108.734375 57.316406 106.808594 C 51.890625 104.878906 54.492188 104.199219 51.890625 104.878906 C 49.292969 105.5625 43.984375 96.488281 33.253906 103.632812 C 22.519531 110.777344 25.683594 104.878906 18.117188 109.984375 C 10.546875 115.085938 0.335938 123.476562 3.238281 119.277344 " fill-opacity="1" fill-rule="nonzero"/><g fill="#007a3f" fill-opacity="1"><g transform="translate(0.444482, 202.383632)"><g><path d="M 44.46875 -28.875 L 56.296875 -28.875 L 56.296875 -6.15625 C 53.253906 -3.863281 49.734375 -2.101562 45.734375 -0.875 C 41.742188 0.34375 37.722656 0.953125 33.671875 0.953125 C 27.859375 0.953125 22.628906 -0.285156 17.984375 -2.765625 C 13.347656 -5.242188 9.710938 -8.679688 7.078125 -13.078125 C 4.441406 -17.472656 3.125 -22.441406 3.125 -27.984375 C 3.125 -33.535156 4.441406 -38.507812 7.078125 -42.90625 C 9.710938 -47.300781 13.375 -50.738281 18.0625 -53.21875 C 22.757812 -55.695312 28.039062 -56.9375 33.90625 -56.9375 C 38.8125 -56.9375 43.265625 -56.109375 47.265625 -54.453125 C 51.265625 -52.804688 54.625 -50.410156 57.34375 -47.265625 L 49.015625 -39.578125 C 45.015625 -43.796875 40.191406 -45.90625 34.546875 -45.90625 C 30.972656 -45.90625 27.800781 -45.15625 25.03125 -43.65625 C 22.257812 -42.164062 20.097656 -40.0625 18.546875 -37.34375 C 17.003906 -34.625 16.234375 -31.503906 16.234375 -27.984375 C 16.234375 -24.523438 17.003906 -21.4375 18.546875 -18.71875 C 20.097656 -16 22.242188 -13.878906 24.984375 -12.359375 C 27.734375 -10.835938 30.867188 -10.078125 34.390625 -10.078125 C 38.117188 -10.078125 41.476562 -10.875 44.46875 -12.46875 Z M 44.46875 -28.875 "/></g></g></g><g fill="#007a3f" fill-opacity="1"><g transform="translate(62.094733, 202.383632)"><g><path d="M 17.671875 -37.34375 C 19.160156 -39.425781 21.171875 -41 23.703125 -42.0625 C 26.242188 -43.125 29.164062 -43.65625 32.46875 -43.65625 L 32.46875 -32.140625 C 31.082031 -32.253906 30.148438 -32.3125 29.671875 -32.3125 C 26.097656 -32.3125 23.296875 -31.3125 21.265625 -29.3125 C 19.242188 -27.3125 18.234375 -24.3125 18.234375 -20.3125 L 18.234375 0 L 5.75 0 L 5.75 -43.015625 L 17.671875 -43.015625 Z M 17.671875 -37.34375 "/></g></g></g><g fill="#007a3f" fill-opacity="1"><g transform="translate(96.558105, 202.383632)"><g><path d="M 5.75 -43.015625 L 18.234375 -43.015625 L 18.234375 0 L 5.75 0 Z M 12 -49.015625 C 9.707031 -49.015625 7.835938 -49.679688 6.390625 -51.015625 C 4.953125 -52.347656 4.234375 -54.003906 4.234375 -55.984375 C 4.234375 -57.953125 4.953125 -59.601562 6.390625 -60.9375 C 7.835938 -62.269531 9.707031 -62.9375 12 -62.9375 C 14.289062 -62.9375 16.15625 -62.296875 17.59375 -61.015625 C 19.03125 -59.734375 19.75 -58.132812 19.75 -56.21875 C 19.75 -54.132812 19.03125 -52.410156 17.59375 -51.046875 C 16.15625 -49.691406 14.289062 -49.015625 12 -49.015625 Z M 12 -49.015625 "/></g></g></g><g fill="#007a3f" fill-opacity="1"><g transform="translate(120.626495, 202.383632)"><g><path d="M 33.5 -2.078125 C 32.28125 -1.171875 30.773438 -0.488281 28.984375 -0.03125 C 27.203125 0.414062 25.320312 0.640625 23.34375 0.640625 C 18.226562 0.640625 14.269531 -0.664062 11.46875 -3.28125 C 8.675781 -5.894531 7.28125 -9.734375 7.28125 -14.796875 L 7.28125 -32.46875 L 0.640625 -32.46875 L 0.640625 -42.0625 L 7.28125 -42.0625 L 7.28125 -52.546875 L 19.75 -52.546875 L 19.75 -42.0625 L 30.46875 -42.0625 L 30.46875 -32.46875 L 19.75 -32.46875 L 19.75 -14.953125 C 19.75 -13.140625 20.210938 -11.738281 21.140625 -10.75 C 22.078125 -9.769531 23.398438 -9.28125 25.109375 -9.28125 C 27.078125 -9.28125 28.753906 -9.8125 30.140625 -10.875 Z M 33.5 -2.078125 "/></g></g></g><g fill="#007a3f" fill-opacity="1"><g transform="translate(155.409709, 202.383632)"><g><path d="M 33.5 -2.078125 C 32.28125 -1.171875 30.773438 -0.488281 28.984375 -0.03125 C 27.203125 0.414062 25.320312 0.640625 23.34375 0.640625 C 18.226562 0.640625 14.269531 -0.664062 11.46875 -3.28125 C 8.675781 -5.894531 7.28125 -9.734375 7.28125 -14.796875 L 7.28125 -32.46875 L 0.640625 -32.46875 L 0.640625 -42.0625 L 7.28125 -42.0625 L 7.28125 -52.546875 L 19.75 -52.546875 L 19.75 -42.0625 L 30.46875 -42.0625 L 30.46875 -32.46875 L 19.75 -32.46875 L 19.75 -14.953125 C 19.75 -13.140625 20.210938 -11.738281 21.140625 -10.75 C 22.078125 -9.769531 23.398438 -9.28125 25.109375 -9.28125 C 27.078125 -9.28125 28.753906 -9.8125 30.140625 -10.875 Z M 33.5 -2.078125 "/></g></g></g><g fill="#007a3f" fill-opacity="1"><g transform="translate(190.192924, 202.383632)"><g><path d="M 48.46875 -43.015625 L 29.03125 2.640625 C 27.050781 7.597656 24.609375 11.085938 21.703125 13.109375 C 18.804688 15.140625 15.304688 16.15625 11.203125 16.15625 C 8.960938 16.15625 6.75 15.804688 4.5625 15.109375 C 2.375 14.421875 0.585938 13.460938 -0.796875 12.234375 L 3.765625 3.359375 C 4.722656 4.210938 5.828125 4.878906 7.078125 5.359375 C 8.328125 5.835938 9.566406 6.078125 10.796875 6.078125 C 12.503906 6.078125 13.890625 5.660156 14.953125 4.828125 C 16.015625 4.003906 16.972656 2.632812 17.828125 0.71875 L 18 0.3125 L -0.640625 -43.015625 L 12.234375 -43.015625 L 24.3125 -13.828125 L 36.46875 -43.015625 Z M 48.46875 -43.015625 "/></g></g></g><g fill="#007a3f" fill-opacity="1"><g transform="translate(238.009846, 202.383632)"><g><path d="M 57.984375 -55.984375 L 57.984375 0 L 45.015625 0 L 45.015625 -22.953125 L 19.59375 -22.953125 L 19.59375 0 L 6.640625 0 L 6.640625 -55.984375 L 19.59375 -55.984375 L 19.59375 -33.90625 L 45.015625 -33.90625 L 45.015625 -55.984375 Z M 57.984375 -55.984375 "/></g></g></g><g fill="#007a3f" fill-opacity="1"><g transform="translate(302.618679, 202.383632)"><g><path d="M 5.75 -43.015625 L 18.234375 -43.015625 L 18.234375 0 L 5.75 0 Z M 12 -49.015625 C 9.707031 -49.015625 7.835938 -49.679688 6.390625 -51.015625 C 4.953125 -52.347656 4.234375 -54.003906 4.234375 -55.984375 C 4.234375 -57.953125 4.953125 -59.601562 6.390625 -60.9375 C 7.835938 -62.269531 9.707031 -62.9375 12 -62.9375 C 14.289062 -62.9375 16.15625 -62.296875 17.59375 -61.015625 C 19.03125 -59.734375 19.75 -58.132812 19.75 -56.21875 C 19.75 -54.132812 19.03125 -52.410156 17.59375 -51.046875 C 16.15625 -49.691406 14.289062 -49.015625 12 -49.015625 Z M 12 -49.015625 "/></g></g></g><g fill="#007a3f" fill-opacity="1"><g transform="translate(326.687083, 202.383632)"><g><path d="M 5.75 -59.34375 L 18.234375 -59.34375 L 18.234375 0 L 5.75 0 Z M 5.75 -59.34375 "/></g></g></g><g fill="#007a3f" fill-opacity="1"><g transform="translate(350.755487, 202.383632)"><g><path d="M 5.75 -59.34375 L 18.234375 -59.34375 L 18.234375 0 L 5.75 0 Z M 5.75 -59.34375 "/></g></g></g></svg>